<svg class="animated" id="freepik_stories-walk-in-the-city" xmlns="http://www.w3.org/2000/svg" viewBox="0 0 500 500" version="1.1" xmlns:xlink="http://www.w3.org/1999/xlink" xmlns:svgjs="http://svgjs.com/svgjs"><style>svg#freepik_stories-walk-in-the-city:not(.animated) .animable {opacity: 0;}svg#freepik_stories-walk-in-the-city.animated #freepik--background-complete--inject-5 {animation: 1.5s Infinite  linear floating;animation-delay: 0s;}svg#freepik_stories-walk-in-the-city.animated #freepik--Hydrant--inject-5 {animation: 1.5s Infinite  linear floating;animation-delay: 0s;}svg#freepik_stories-walk-in-the-city.animated #freepik--Lights--inject-5 {animation: 1.5s Infinite  linear floating;animation-delay: 0s;}svg#freepik_stories-walk-in-the-city.animated #freepik--Character--inject-5 {animation: 1.5s Infinite  linear floating;animation-delay: 0s;}            @keyframes floating {                0% {                    opacity: 1;                    transform: translateY(0px);                }                50% {                    transform: translateY(-10px);                }                100% {                    opacity: 1;                    transform: translateY(0px);                }            }        </style><g id="freepik--background-complete--inject-5" class="animable animator-active" style="transform-origin: 250px 227.39px;"><rect y="382.4" width="500" height="0.25" style="fill: rgb(235, 235, 235); transform-origin: 250px 382.525px;" id="elpz7mbf483l" class="animable"></rect><rect x="52.46" y="391.92" width="25.54" height="0.25" style="fill: rgb(235, 235, 235); transform-origin: 65.23px 392.045px;" id="el3ta911ockml" class="animable"></rect><rect x="154.06" y="389.21" width="109.94" height="0.25" style="fill: rgb(235, 235, 235); transform-origin: 209.03px 389.335px;" id="elzfogd5wrxdm" class="animable"></rect><rect x="97.33" y="395.18" width="72.67" height="0.25" style="fill: rgb(235, 235, 235); transform-origin: 133.665px 395.305px;" id="elwer5vsvw5kn" class="animable"></rect><rect x="353.66" y="399.53" width="96.25" height="0.25" style="fill: rgb(235, 235, 235); transform-origin: 401.785px 399.655px;" id="el00040zrswhqmcf" class="animable"></rect><rect x="338.42" y="399.53" width="6.33" height="0.25" style="fill: rgb(235, 235, 235); transform-origin: 341.585px 399.655px;" id="el5lhthd028nt" class="animable"></rect><rect x="301.22" y="395.31" width="69.67" height="0.25" style="fill: rgb(235, 235, 235); transform-origin: 336.055px 395.435px;" id="elaual6qylnzm" class="animable"></rect><path d="M237,337.8H43.91a5.71,5.71,0,0,1-5.7-5.71V60.66A5.71,5.71,0,0,1,43.91,55H237a5.71,5.71,0,0,1,5.71,5.71V332.09A5.71,5.71,0,0,1,237,337.8ZM43.91,55.2a5.46,5.46,0,0,0-5.45,5.46V332.09a5.46,5.46,0,0,0,5.45,5.46H237a5.47,5.47,0,0,0,5.46-5.46V60.66A5.47,5.47,0,0,0,237,55.2Z" style="fill: rgb(235, 235, 235); transform-origin: 140.46px 196.4px;" id="el6wixck1vwue" class="animable"></path><path d="M453.31,337.8H260.21a5.72,5.72,0,0,1-5.71-5.71V60.66A5.72,5.72,0,0,1,260.21,55h193.1A5.71,5.71,0,0,1,459,60.66V332.09A5.71,5.71,0,0,1,453.31,337.8ZM260.21,55.2a5.47,5.47,0,0,0-5.46,5.46V332.09a5.47,5.47,0,0,0,5.46,5.46h193.1a5.47,5.47,0,0,0,5.46-5.46V60.66a5.47,5.47,0,0,0-5.46-5.46Z" style="fill: rgb(235, 235, 235); transform-origin: 356.75px 196.4px;" id="elp8bpvxv3oi" class="animable"></path><rect x="66.4" y="327.67" width="101" height="54.73" style="fill: rgb(224, 224, 224); transform-origin: 116.9px 355.035px;" id="elxtifk6zjuxr" class="animable"></rect><rect x="105.4" y="327.67" width="55" height="37" style="fill: rgb(230, 230, 230); transform-origin: 132.9px 346.17px;" id="el7qbbwuukn8" class="animable"></rect><polygon points="138.37 327.67 129.81 327.67 115.62 364.67 124.18 364.67 138.37 327.67" style="fill: rgb(235, 235, 235); transform-origin: 126.995px 346.17px;" id="elkl29p66cs88" class="animable"></polygon><polygon points="145.28 327.67 140.16 327.67 125.97 364.67 131.1 364.67 145.28 327.67" style="fill: rgb(235, 235, 235); transform-origin: 135.625px 346.17px;" id="el7e6ksrzyp8w" class="animable"></polygon><g id="eliqw2qgvqmf"><rect x="77.56" y="343.17" width="20.67" height="39.23" style="fill: rgb(230, 230, 230); transform-origin: 87.895px 362.785px; transform: rotate(180deg);" class="animable"></rect></g><rect x="66.4" y="318.67" width="101" height="9" style="fill: rgb(240, 240, 240); transform-origin: 116.9px 323.17px;" id="elvt0eczltk88" class="animable"></rect><rect x="69.84" y="102.28" width="94.11" height="216.38" style="fill: rgb(235, 235, 235); transform-origin: 116.895px 210.47px;" id="eltredfoyqwic" class="animable"></rect><rect x="66.4" y="98.44" width="101" height="9" style="fill: rgb(224, 224, 224); transform-origin: 116.9px 102.94px;" id="el0n46txgg2jmh" class="animable"></rect><rect x="89.86" y="127.34" width="18.23" height="31" style="fill: rgb(224, 224, 224); transform-origin: 98.975px 142.84px;" id="elf635s2eej9e" class="animable"></rect><rect x="88.64" y="141.09" width="20.67" height="3.5" style="fill: rgb(235, 235, 235); transform-origin: 98.975px 142.84px;" id="elkp7s3mnxq9k" class="animable"></rect><rect x="125.63" y="127.34" width="18.23" height="31" style="fill: rgb(224, 224, 224); transform-origin: 134.745px 142.84px;" id="elwfz2a8o1i" class="animable"></rect><rect x="124.42" y="141.09" width="20.67" height="3.5" style="fill: rgb(235, 235, 235); transform-origin: 134.755px 142.84px;" id="elghepswr120b" class="animable"></rect><rect x="89.86" y="174.45" width="18.23" height="31" style="fill: rgb(224, 224, 224); transform-origin: 98.975px 189.95px;" id="elpft0ouxtevg" class="animable"></rect><rect x="88.64" y="188.2" width="20.67" height="3.5" style="fill: rgb(235, 235, 235); transform-origin: 98.975px 189.95px;" id="elswaznj6k7s" class="animable"></rect><rect x="125.63" y="174.45" width="18.23" height="31" style="fill: rgb(224, 224, 224); transform-origin: 134.745px 189.95px;" id="elazy1lwomtq5" class="animable"></rect><rect x="124.42" y="188.2" width="20.67" height="3.5" style="fill: rgb(235, 235, 235); transform-origin: 134.755px 189.95px;" id="el7x0pd81b47m" class="animable"></rect><rect x="89.86" y="221.56" width="18.23" height="31" style="fill: rgb(224, 224, 224); transform-origin: 98.975px 237.06px;" id="eleoao1rvllk6" class="animable"></rect><rect x="88.64" y="235.31" width="20.67" height="3.5" style="fill: rgb(235, 235, 235); transform-origin: 98.975px 237.06px;" id="elnma0gwak5yh" class="animable"></rect><rect x="125.63" y="221.56" width="18.23" height="31" style="fill: rgb(224, 224, 224); transform-origin: 134.745px 237.06px;" id="eldcvo891ptq4" class="animable"></rect><rect x="124.42" y="235.31" width="20.67" height="3.5" style="fill: rgb(235, 235, 235); transform-origin: 134.755px 237.06px;" id="elliij7g1xg18" class="animable"></rect><rect x="89.86" y="268.67" width="18.23" height="31" style="fill: rgb(224, 224, 224); transform-origin: 98.975px 284.17px;" id="elvkrgva30onn" class="animable"></rect><rect x="88.64" y="282.42" width="20.67" height="3.5" style="fill: rgb(235, 235, 235); transform-origin: 98.975px 284.17px;" id="el1k7wgua6wdf" class="animable"></rect><rect x="125.63" y="268.67" width="18.23" height="31" style="fill: rgb(224, 224, 224); transform-origin: 134.745px 284.17px;" id="elgmff29d3g64" class="animable"></rect><rect x="124.42" y="282.42" width="20.67" height="3.5" style="fill: rgb(235, 235, 235); transform-origin: 134.755px 284.17px;" id="el12r5qsgjyhdf" class="animable"></rect><rect x="312.56" y="327.67" width="121.04" height="54.73" style="fill: rgb(250, 250, 250); transform-origin: 373.08px 355.035px;" id="elhdtkzm3m7tu" class="animable"></rect><rect x="359.3" y="332.83" width="26.99" height="31.83" style="fill: rgb(240, 240, 240); transform-origin: 372.795px 348.745px;" id="elu67j9y6h1us" class="animable"></rect><rect x="391.83" y="332.83" width="26.99" height="31.83" style="fill: rgb(240, 240, 240); transform-origin: 405.325px 348.745px;" id="elq2nc2bvcyt" class="animable"></rect><g id="elkzzjn6q1zy"><rect x="328.88" y="343.17" width="20.67" height="39.23" style="fill: rgb(240, 240, 240); transform-origin: 339.215px 362.785px; transform: rotate(180deg);" class="animable"></rect></g><rect x="312.56" y="318.67" width="121.04" height="9" style="fill: rgb(240, 240, 240); transform-origin: 373.08px 323.17px;" id="el9prpjtfgla" class="animable"></rect><rect x="316.69" y="155.62" width="112.79" height="163.05" style="fill: rgb(235, 235, 235); transform-origin: 373.085px 237.145px;" id="elge6ktd295gb" class="animable"></rect><path d="M365,123.16h0a13.81,13.81,0,0,1-13.81-13.81v-23a1.47,1.47,0,0,1,1.47-1.47h24.68a1.47,1.47,0,0,1,1.47,1.47v23A13.81,13.81,0,0,1,365,123.16Z" style="fill: rgb(235, 235, 235); transform-origin: 365px 104.02px;" id="el41ktmqdu6md" class="animable"></path><polygon points="364.99 77.07 345.71 86.74 384.26 86.74 364.99 77.07" style="fill: rgb(235, 235, 235); transform-origin: 364.985px 81.905px;" id="el1zk9329qpoe" class="animable"></polygon><rect x="364.41" y="107.57" width="1.16" height="42.03" style="fill: rgb(235, 235, 235); transform-origin: 364.99px 128.585px;" id="elbmy31bbubrd" class="animable"></rect><polygon points="347.36 149.6 346.2 149.6 354.6 107.57 355.76 107.57 347.36 149.6" style="fill: rgb(235, 235, 235); transform-origin: 350.98px 128.585px;" id="el2mxcf0zzw7" class="animable"></polygon><polygon points="382.61 149.6 383.77 149.6 375.38 107.57 374.21 107.57 382.61 149.6" style="fill: rgb(235, 235, 235); transform-origin: 378.99px 128.585px;" id="el6kv7is1uuw3" class="animable"></polygon><rect x="349.34" y="135.35" width="31.29" height="2" style="fill: rgb(235, 235, 235); transform-origin: 364.985px 136.35px;" id="el8ob3b7121al" class="animable"></rect><rect x="316.69" y="146.67" width="112.79" height="13.89" style="fill: rgb(224, 224, 224); transform-origin: 373.085px 153.615px;" id="el0532uj4owsb" class="animable"></rect><rect x="315.05" y="159.44" width="116.06" height="4.67" style="fill: rgb(224, 224, 224); transform-origin: 373.08px 161.775px;" id="elrkxfdwb31ej" class="animable"></rect><rect x="316.69" y="144.59" width="3.04" height="10" style="fill: rgb(224, 224, 224); transform-origin: 318.21px 149.59px;" id="ela97hzr1302m" class="animable"></rect><rect x="325.13" y="144.59" width="3.04" height="10" style="fill: rgb(224, 224, 224); transform-origin: 326.65px 149.59px;" id="elkqdam3ms9q" class="animable"></rect><rect x="333.57" y="144.59" width="3.04" height="10" style="fill: rgb(224, 224, 224); transform-origin: 335.09px 149.59px;" id="elm6b4d5w6tz" class="animable"></rect><rect x="342.01" y="144.59" width="3.04" height="10" style="fill: rgb(224, 224, 224); transform-origin: 343.53px 149.59px;" id="el1xfr3nlrau1" class="animable"></rect><rect x="350.45" y="144.59" width="3.04" height="10" style="fill: rgb(224, 224, 224); transform-origin: 351.97px 149.59px;" id="elaku6nj6alo" class="animable"></rect><rect x="358.9" y="144.59" width="3.04" height="10" style="fill: rgb(224, 224, 224); transform-origin: 360.42px 149.59px;" id="elli5fzzapl8l" class="animable"></rect><rect x="367.34" y="144.59" width="3.04" height="10" style="fill: rgb(224, 224, 224); transform-origin: 368.86px 149.59px;" id="elub4a42cu6a" class="animable"></rect><rect x="375.78" y="144.59" width="3.04" height="10" style="fill: rgb(224, 224, 224); transform-origin: 377.3px 149.59px;" id="elqmrbu1kzggm" class="animable"></rect><rect x="384.22" y="144.59" width="3.04" height="10" style="fill: rgb(224, 224, 224); transform-origin: 385.74px 149.59px;" id="el12f4n8jhrt5m" class="animable"></rect><rect x="392.66" y="144.59" width="3.04" height="10" style="fill: rgb(224, 224, 224); transform-origin: 394.18px 149.59px;" id="elhahd1suxkiv" class="animable"></rect><rect x="401.11" y="144.59" width="3.04" height="10" style="fill: rgb(224, 224, 224); transform-origin: 402.63px 149.59px;" id="elwjvkhi1yx9" class="animable"></rect><rect x="409.55" y="144.59" width="3.04" height="10" style="fill: rgb(224, 224, 224); transform-origin: 411.07px 149.59px;" id="elv2fnar6wbae" class="animable"></rect><rect x="417.99" y="144.59" width="3.04" height="10" style="fill: rgb(224, 224, 224); transform-origin: 419.51px 149.59px;" id="el2hpjkav7d7n" class="animable"></rect><rect x="426.43" y="144.59" width="3.04" height="10" style="fill: rgb(224, 224, 224); transform-origin: 427.95px 149.59px;" id="elb45b0b78wps" class="animable"></rect><rect x="340.67" y="174.45" width="21.85" height="31" style="fill: rgb(224, 224, 224); transform-origin: 351.595px 189.95px;" id="elhbv9cskijr" class="animable"></rect><rect x="339.21" y="188.2" width="24.77" height="3.5" style="fill: rgb(235, 235, 235); transform-origin: 351.595px 189.95px;" id="eld6nrb1i3fww" class="animable"></rect><rect x="383.55" y="174.45" width="21.85" height="31" style="fill: rgb(224, 224, 224); transform-origin: 394.475px 189.95px;" id="elpl25njzemq" class="animable"></rect><rect x="382.09" y="188.2" width="24.77" height="3.5" style="fill: rgb(235, 235, 235); transform-origin: 394.475px 189.95px;" id="elidw76yb0o7s" class="animable"></rect><rect x="340.67" y="221.56" width="21.85" height="31" style="fill: rgb(224, 224, 224); transform-origin: 351.595px 237.06px;" id="elqmmg5l40h98" class="animable"></rect><rect x="339.21" y="235.31" width="24.77" height="3.5" style="fill: rgb(235, 235, 235); transform-origin: 351.595px 237.06px;" id="els02rxgcl4p" class="animable"></rect><rect x="383.55" y="221.56" width="21.85" height="31" style="fill: rgb(224, 224, 224); transform-origin: 394.475px 237.06px;" id="elis90al5x3r" class="animable"></rect><rect x="382.09" y="235.31" width="24.77" height="3.5" style="fill: rgb(235, 235, 235); transform-origin: 394.475px 237.06px;" id="elgaquwgvx94" class="animable"></rect><rect x="340.67" y="268.67" width="21.85" height="31" style="fill: rgb(224, 224, 224); transform-origin: 351.595px 284.17px;" id="elhdegof8vf9w" class="animable"></rect><rect x="339.21" y="282.42" width="24.77" height="3.5" style="fill: rgb(235, 235, 235); transform-origin: 351.595px 284.17px;" id="elvqd3lwgz6n" class="animable"></rect><rect x="383.55" y="268.67" width="21.85" height="31" style="fill: rgb(224, 224, 224); transform-origin: 394.475px 284.17px;" id="el3rfyvro08ym" class="animable"></rect><rect x="382.09" y="282.42" width="24.77" height="3.5" style="fill: rgb(235, 235, 235); transform-origin: 394.475px 284.17px;" id="el1shpv3c3a2r" class="animable"></rect><g id="el3ydqj4l9574"><rect x="170.3" y="327.67" width="135.76" height="54.73" style="fill: rgb(240, 240, 240); transform-origin: 238.18px 355.035px; transform: rotate(180deg);" class="animable"></rect></g><g id="elrcglkuyrp6d"><rect x="177.3" y="327.67" width="89.76" height="37" style="fill: rgb(230, 230, 230); transform-origin: 222.18px 346.17px; transform: rotate(180deg);" class="animable"></rect></g><polygon points="215.16 327.67 206.61 327.67 192.42 364.67 200.97 364.67 215.16 327.67" style="fill: rgb(235, 235, 235); transform-origin: 203.79px 346.17px;" id="elv10l6czlbdb" class="animable"></polygon><polygon points="222.08 327.67 216.96 327.67 202.77 364.67 207.89 364.67 222.08 327.67" style="fill: rgb(235, 235, 235); transform-origin: 212.425px 346.17px;" id="el6l5dvw1w6e3" class="animable"></polygon><rect x="274.23" y="343.17" width="20.67" height="39.23" style="fill: rgb(230, 230, 230); transform-origin: 284.565px 362.785px;" id="eluwykvmn2u9" class="animable"></rect><g id="eljvwn5l9x8a"><rect x="173.75" y="112.84" width="128.87" height="205.83" style="fill: rgb(245, 245, 245); transform-origin: 238.185px 215.755px; transform: rotate(180deg);" class="animable"></rect></g><g id="elf1p023pecy5"><rect x="167.4" y="309" width="141.57" height="24.67" style="fill: rgb(224, 224, 224); transform-origin: 238.185px 321.335px; transform: rotate(180deg);" class="animable"></rect></g><g id="elsjcoqtiq2ef"><rect x="170.3" y="117.33" width="135.76" height="3.83" style="fill: rgb(224, 224, 224); transform-origin: 238.18px 119.245px; transform: rotate(180deg);" class="animable"></rect></g><g id="ely5flrglkfbf"><rect x="170.3" y="111.42" width="135.76" height="3.83" style="fill: rgb(224, 224, 224); transform-origin: 238.18px 113.335px; transform: rotate(180deg);" class="animable"></rect></g><g id="elgprfvhibvx"><rect x="264.38" y="127.34" width="18.23" height="31" style="fill: rgb(235, 235, 235); transform-origin: 273.495px 142.84px; transform: rotate(180deg);" class="animable"></rect></g><g id="elpw485dnr7cg"><rect x="263.16" y="141.09" width="20.67" height="3.5" style="fill: rgb(245, 245, 245); transform-origin: 273.495px 142.84px; transform: rotate(180deg);" class="animable"></rect></g><g id="elrkokn2hc0ng"><rect x="193.84" y="127.34" width="18.23" height="31" style="fill: rgb(235, 235, 235); transform-origin: 202.955px 142.84px; transform: rotate(180deg);" class="animable"></rect></g><g id="elm7adx3auanj"><rect x="192.62" y="141.09" width="20.67" height="3.5" style="fill: rgb(245, 245, 245); transform-origin: 202.955px 142.84px; transform: rotate(180deg);" class="animable"></rect></g><g id="elx3n2lex42f"><rect x="264.38" y="174.45" width="18.23" height="31" style="fill: rgb(235, 235, 235); transform-origin: 273.495px 189.95px; transform: rotate(180deg);" class="animable"></rect></g><g id="ellrv56kk2hfq"><rect x="263.16" y="188.2" width="20.67" height="3.5" style="fill: rgb(245, 245, 245); transform-origin: 273.495px 189.95px; transform: rotate(180deg);" class="animable"></rect></g><g id="elu4bjww1yejl"><rect x="193.84" y="174.45" width="18.23" height="31" style="fill: rgb(235, 235, 235); transform-origin: 202.955px 189.95px; transform: rotate(180deg);" class="animable"></rect></g><g id="el5uo30q0aedd"><rect x="192.62" y="188.2" width="20.67" height="3.5" style="fill: rgb(245, 245, 245); transform-origin: 202.955px 189.95px; transform: rotate(180deg);" class="animable"></rect></g><g id="elxempj7vit7f"><rect x="264.38" y="221.56" width="18.23" height="31" style="fill: rgb(235, 235, 235); transform-origin: 273.495px 237.06px; transform: rotate(180deg);" class="animable"></rect></g><g id="eld95ozv3oogg"><rect x="263.16" y="235.31" width="20.67" height="3.5" style="fill: rgb(245, 245, 245); transform-origin: 273.495px 237.06px; transform: rotate(180deg);" class="animable"></rect></g><g id="el7teo8tck2c9"><rect x="193.84" y="221.56" width="18.23" height="31" style="fill: rgb(235, 235, 235); transform-origin: 202.955px 237.06px; transform: rotate(180deg);" class="animable"></rect></g><g id="el9l7dmqr86l"><rect x="192.62" y="235.31" width="20.67" height="3.5" style="fill: rgb(245, 245, 245); transform-origin: 202.955px 237.06px; transform: rotate(180deg);" class="animable"></rect></g><g id="el021jh5hqdd6i"><rect x="264.38" y="268.67" width="18.23" height="31" style="fill: rgb(235, 235, 235); transform-origin: 273.495px 284.17px; transform: rotate(180deg);" class="animable"></rect></g><g id="el9d5g88x9nzm"><rect x="263.16" y="282.42" width="20.67" height="3.5" style="fill: rgb(245, 245, 245); transform-origin: 273.495px 284.17px; transform: rotate(180deg);" class="animable"></rect></g><g id="elwluiz4sra4"><rect x="229.07" y="127.34" width="18.23" height="31" style="fill: rgb(235, 235, 235); transform-origin: 238.185px 142.84px; transform: rotate(180deg);" class="animable"></rect></g><g id="elpiu1are6sre"><rect x="227.85" y="141.09" width="20.67" height="3.5" style="fill: rgb(245, 245, 245); transform-origin: 238.185px 142.84px; transform: rotate(180deg);" class="animable"></rect></g><g id="el9qf1fmijyp6"><rect x="229.07" y="174.45" width="18.23" height="31" style="fill: rgb(235, 235, 235); transform-origin: 238.185px 189.95px; transform: rotate(180deg);" class="animable"></rect></g><g id="el22meh5smxy2"><rect x="227.85" y="188.2" width="20.67" height="3.5" style="fill: rgb(245, 245, 245); transform-origin: 238.185px 189.95px; transform: rotate(180deg);" class="animable"></rect></g><g id="elwi261mf87k"><rect x="229.07" y="221.56" width="18.23" height="31" style="fill: rgb(235, 235, 235); transform-origin: 238.185px 237.06px; transform: rotate(180deg);" class="animable"></rect></g><g id="eluhjw5uhge7"><rect x="227.85" y="235.31" width="20.67" height="3.5" style="fill: rgb(245, 245, 245); transform-origin: 238.185px 237.06px; transform: rotate(180deg);" class="animable"></rect></g><g id="ellq5l87hh3y8"><rect x="229.07" y="268.67" width="18.23" height="31" style="fill: rgb(235, 235, 235); transform-origin: 238.185px 284.17px; transform: rotate(180deg);" class="animable"></rect></g><g id="elauc2rykyz35"><rect x="227.85" y="282.42" width="20.67" height="3.5" style="fill: rgb(245, 245, 245); transform-origin: 238.185px 284.17px; transform: rotate(180deg);" class="animable"></rect></g><g id="els5nkwv1mnpj"><rect x="193.84" y="268.67" width="18.23" height="31" style="fill: rgb(235, 235, 235); transform-origin: 202.955px 284.17px; transform: rotate(180deg);" class="animable"></rect></g><g id="elhycjdq9xz5o"><rect x="192.62" y="282.42" width="20.67" height="3.5" style="fill: rgb(245, 245, 245); transform-origin: 202.955px 284.17px; transform: rotate(180deg);" class="animable"></rect></g></g><g id="freepik--Shadow--inject-5" class="animable" style="transform-origin: 250px 416.24px;"><ellipse id="freepik--path--inject-5" cx="250" cy="416.24" rx="193.89" ry="11.32" style="fill: rgb(245, 245, 245); transform-origin: 250px 416.24px;" class="animable"></ellipse></g><g id="freepik--Hydrant--inject-5" class="animable" style="transform-origin: 367.985px 356.878px;"><g id="el2wra1z38hjq"><circle cx="367.98" cy="328.83" r="20.4" style="fill: rgb(64, 123, 255); transform-origin: 367.98px 328.83px; transform: rotate(-22.5deg);" class="animable"></circle></g><g id="elwtq7v8jr8o"><path d="M388.38,328.82a20.4,20.4,0,1,1-34.92-14.31c2.34,5.61,10.26,9.73,19.68,9.73a27.53,27.53,0,0,0,13.64-3.36A20.39,20.39,0,0,1,388.38,328.82Z" style="opacity: 0.2; transform-origin: 367.98px 331.875px;" class="animable"></path></g><circle cx="367.98" cy="308.43" r="3.16" style="fill: rgb(64, 123, 255); transform-origin: 367.98px 308.43px;" id="elihp0rihmqeq" class="animable"></circle><path d="M344.71,406.46h46.56a3.12,3.12,0,0,1,3.12,3.12v2a0,0,0,0,1,0,0h-52.8a0,0,0,0,1,0,0v-2A3.12,3.12,0,0,1,344.71,406.46Z" style="fill: rgb(64, 123, 255); transform-origin: 367.99px 409.02px;" id="elzu6nez0fuyo" class="animable"></path><rect x="346.25" y="328.83" width="43.46" height="77.64" style="fill: rgb(64, 123, 255); transform-origin: 367.98px 367.65px;" id="els0er60jha0m" class="animable"></rect><path d="M347,401.78h41.89A3.12,3.12,0,0,1,392,404.9v1.57a0,0,0,0,1,0,0H343.92a0,0,0,0,1,0,0V404.9A3.12,3.12,0,0,1,347,401.78Z" style="fill: rgb(64, 123, 255); transform-origin: 367.96px 404.125px;" id="el8cdfnzd4lee" class="animable"></path><g id="el9lvrxhtz5tj"><path d="M347,401.78h41.89A3.12,3.12,0,0,1,392,404.9v1.57a0,0,0,0,1,0,0H343.92a0,0,0,0,1,0,0V404.9A3.12,3.12,0,0,1,347,401.78Z" style="opacity: 0.2; transform-origin: 367.96px 404.125px;" class="animable"></path></g><g id="elboaes6shti"><rect x="346.25" y="328.82" width="43.46" height="4" style="opacity: 0.2; transform-origin: 367.98px 330.82px;" class="animable"></rect></g><g id="elpuo1wqn178"><path d="M350.5,395.28v-58a2,2,0,0,1,2-2h0a2,2,0,0,1,2,2v58a2,2,0,0,1-2,2h0A2,2,0,0,1,350.5,395.28Z" style="opacity: 0.2; transform-origin: 352.5px 366.28px;" class="animable"></path></g><g id="elmeeemug317"><path d="M360.82,395.28v-58a2,2,0,0,1,2-2h0a2,2,0,0,1,2,2v58a2,2,0,0,1-2,2h0A2,2,0,0,1,360.82,395.28Z" style="opacity: 0.2; transform-origin: 362.82px 366.28px;" class="animable"></path></g><g id="eljjz14d6gwop"><path d="M371.14,395.28v-58a2,2,0,0,1,2-2h0a2,2,0,0,1,2,2v58a2,2,0,0,1-2,2h0A2,2,0,0,1,371.14,395.28Z" style="opacity: 0.2; transform-origin: 373.14px 366.28px;" class="animable"></path></g><g id="elkb155h2m0j"><path d="M381.46,395.28v-58a2,2,0,0,1,2-2h0a2,2,0,0,1,2,2v58a2,2,0,0,1-2,2h0A2,2,0,0,1,381.46,395.28Z" style="opacity: 0.2; transform-origin: 383.46px 366.28px;" class="animable"></path></g><path d="M389.38,331.49H346.59a2.68,2.68,0,0,1-2.67-2.67h0a2.67,2.67,0,0,1,2.67-2.66h42.79a2.67,2.67,0,0,1,2.67,2.66h0A2.68,2.68,0,0,1,389.38,331.49Z" style="fill: rgb(64, 123, 255); transform-origin: 367.985px 328.825px;" id="el9imaa9sxdei" class="animable"></path><g id="elznpev5t8fnd"><circle cx="367.98" cy="353.87" r="11.68" style="opacity: 0.2; transform-origin: 367.98px 353.87px; transform: rotate(-76.72deg);" class="animable"></circle></g><g id="elglhkbkm1vm"><circle cx="367.98" cy="352.46" r="11.68" style="fill: rgb(64, 123, 255); transform-origin: 367.98px 352.46px; transform: rotate(-45deg);" class="animable"></circle></g><g id="elrybnmro1hg"><circle cx="367.98" cy="353.51" r="7.16" style="opacity: 0.2; transform-origin: 367.98px 353.51px;" class="animable"></circle></g><circle cx="367.98" cy="352.46" r="7.16" style="fill: rgb(64, 123, 255); transform-origin: 367.98px 352.46px;" id="eltju0425cn8r" class="animable"></circle><rect x="340.1" y="345.3" width="6.15" height="14.19" style="fill: rgb(64, 123, 255); transform-origin: 343.175px 352.395px;" id="eli7xcwipuxht" class="animable"></rect><g id="elizjbief2vu"><rect x="340.1" y="345.3" width="6.15" height="14.19" style="opacity: 0.2; transform-origin: 343.175px 352.395px;" class="animable"></rect></g><path d="M343.83,364h0a5,5,0,0,1-5-5V345.75a5,5,0,0,1,5-5h0Z" style="fill: rgb(64, 123, 255); transform-origin: 341.33px 352.375px;" id="ellwmf9wwo2rh" class="animable"></path><path d="M339.47,359.49h0a5,5,0,0,1-5-5v-4.23a5,5,0,0,1,5-5h0Z" style="fill: rgb(64, 123, 255); transform-origin: 336.97px 352.375px;" id="elbv7qxgggt3" class="animable"></path><g id="el56sy1gkvr75"><rect x="389.72" y="345.3" width="6.15" height="14.19" style="fill: rgb(64, 123, 255); transform-origin: 392.795px 352.395px; transform: rotate(180deg);" class="animable"></rect></g><g id="el3regeineoc"><rect x="389.72" y="345.3" width="6.15" height="14.19" style="opacity: 0.2; transform-origin: 392.795px 352.395px; transform: rotate(180deg);" class="animable"></rect></g><path d="M392.14,364h0a5,5,0,0,0,5-5V345.75a5,5,0,0,0-5-5h0Z" style="fill: rgb(64, 123, 255); transform-origin: 394.64px 352.375px;" id="ella89cnd93ub" class="animable"></path><path d="M396.5,359.49h0a5,5,0,0,0,5-5v-4.23a5,5,0,0,0-5-5h0Z" style="fill: rgb(64, 123, 255); transform-origin: 399px 352.375px;" id="ellb9jr580ll" class="animable"></path></g><g id="freepik--Lights--inject-5" class="animable" style="transform-origin: 161.751px 236.334px;"><rect x="151.11" y="199.83" width="11.33" height="5.84" style="fill: rgb(64, 123, 255); transform-origin: 156.775px 202.75px;" id="elchn1biym6lk" class="animable"></rect><g id="el0s4cnvyclsdp"><rect x="151.11" y="199.83" width="11.33" height="5.84" style="opacity: 0.2; transform-origin: 156.775px 202.75px;" class="animable"></rect></g><rect x="159.22" y="76.78" width="6.44" height="334.84" style="fill: rgb(64, 123, 255); transform-origin: 162.44px 244.2px;" id="elcavmdj2b1ar" class="animable"></rect><g id="eljxyffj8txz"><rect x="159.22" y="76.78" width="6.44" height="18" style="opacity: 0.2; transform-origin: 162.44px 85.78px;" class="animable"></rect></g><g id="elxjqz8q6ga8n"><rect x="104.44" y="62.22" width="116" height="29.11" style="fill: rgb(64, 123, 255); transform-origin: 162.44px 76.775px; transform: rotate(-1.16deg);" class="animable"></rect></g><g id="elo7uiyt91bhe"><rect x="149.88" y="20.78" width="25.11" height="112" style="fill: rgb(255, 255, 255); transform-origin: 162.435px 76.78px; transform: rotate(88.84deg);" class="animable"></rect></g><rect x="102.78" y="111.94" width="51.55" height="113.73" rx="12" style="fill: rgb(64, 123, 255); transform-origin: 128.555px 168.805px;" id="el75nyiw1k9yd" class="animable"></rect><g id="elm1j94u1450j"><polygon points="128.56 153.34 102.78 166.74 102.78 140.97 128.56 127.57 128.56 153.34" style="opacity: 0.2; transform-origin: 115.67px 147.155px;" class="animable"></polygon></g><g id="elw8xr8fihkmt"><polygon points="128.56 181.69 102.78 195.08 102.78 169.31 128.56 155.92 128.56 181.69" style="opacity: 0.2; transform-origin: 115.67px 175.5px;" class="animable"></polygon></g><g id="elnrt7q6fl08"><path d="M102.78,197.66v16a11.93,11.93,0,0,0,3.18,8.11L128.55,210V184.27Z" style="opacity: 0.2; transform-origin: 115.665px 203.02px;" class="animable"></path></g><circle cx="128.55" cy="140.46" r="12.89" style="fill: rgb(255, 255, 255); transform-origin: 128.55px 140.46px;" id="elpo4qtq2lbrd" class="animable"></circle><g id="elefpdrfz1638"><circle cx="128.55" cy="168.81" r="12.89" style="fill: rgb(38, 50, 56); transform-origin: 128.55px 168.81px; transform: rotate(-80.78deg);" class="animable"></circle></g><circle cx="128.55" cy="197.15" r="12.89" style="fill: rgb(38, 50, 56); transform-origin: 128.55px 197.15px;" id="el4slfh5q0jmt" class="animable"></circle></g><g id="freepik--Character--inject-5" class="animable" style="transform-origin: 258.059px 261.322px;"><path d="M271.35,154.88l.56.5.42.39.77.76c.5.5.95,1,1.41,1.52.89,1,1.71,2.09,2.49,3.18a40.52,40.52,0,0,1,4,7.05,36.56,36.56,0,0,1,3,16.09,31.27,31.27,0,0,1-1.39,8c-.37,1.23-.79,2.41-1.23,3.55s-.94,2.25-1.45,3.32a65.61,65.61,0,0,1-3.36,6.2,57.52,57.52,0,0,1-4,5.78l-7.09-3.54c.89-4.17,2-8.4,2.75-12.42.22-1,.38-2,.54-3l.23-1.44.17-1.4a28.7,28.7,0,0,0,.07-5.06,25.57,25.57,0,0,0-2.74-9.49,32.17,32.17,0,0,0-2.66-4.36c-.5-.7-1-1.38-1.57-2l-.81-.93-.38-.43-.18-.18s-.14-.14,0-.06Z" style="fill: rgb(64, 123, 255); transform-origin: 272.435px 183.05px;" id="elebhq4w831i9" class="animable"></path><g id="elsezgmxphcgf"><path d="M271.35,154.88l.56.5.42.39.77.76c.5.5.95,1,1.41,1.52.89,1,1.71,2.09,2.49,3.18a40.52,40.52,0,0,1,4,7.05,36.56,36.56,0,0,1,3,16.09,31.27,31.27,0,0,1-1.39,8c-.37,1.23-.79,2.41-1.23,3.55s-.94,2.25-1.45,3.32a65.61,65.61,0,0,1-3.36,6.2,57.52,57.52,0,0,1-4,5.78l-7.09-3.54c.89-4.17,2-8.4,2.75-12.42.22-1,.38-2,.54-3l.23-1.44.17-1.4a28.7,28.7,0,0,0,.07-5.06,25.57,25.57,0,0,0-2.74-9.49,32.17,32.17,0,0,0-2.66-4.36c-.5-.7-1-1.38-1.57-2l-.81-.93-.38-.43-.18-.18s-.14-.14,0-.06Z" style="opacity: 0.2; transform-origin: 272.435px 183.05px;" class="animable"></path></g><path d="M241.15,199.65c-2.35,11.81-9.28,13.57-17.09,12s-13.53-5.85-11.18-17.66,11.9-26.65,19.71-25.09S243.51,187.85,241.15,199.65Z" style="fill: rgb(38, 50, 56); transform-origin: 227.134px 190.463px;" id="elyfc18ooi5dp" class="animable"></path><path d="M269.25,152.37s8.87,22.7.45,65H229.49c-.28-6.17,3.6-36.28-2.35-65.36a105.49,105.49,0,0,1,13.46-1.7,147.53,147.53,0,0,1,17.09,0A74.79,74.79,0,0,1,269.25,152.37Z" style="fill: rgb(255, 255, 255); transform-origin: 250.235px 183.716px;" id="elodrpdjhedvo" class="animable"></path><path d="M242.29,131c1.08,5.5,2.15,15.58-1.69,19.25,0,0,4.12,3.89,12.42,5.58,5.59-3.08,4.67-5.58,4.67-5.58-6.14-1.46-6-6-4.91-10.29Z" style="fill: rgb(255, 181, 115); transform-origin: 249.173px 143.415px;" id="elxgclz24izkc" class="animable"></path><g id="el65sm35j3zh5"><path d="M246.57,134.69l6.21,5.3a17.2,17.2,0,0,0-.53,3c-2,1.9-5.56-2.91-5.81-5.36A8.31,8.31,0,0,1,246.57,134.69Z" style="opacity: 0.2; transform-origin: 249.573px 139.057px;" class="animable"></path></g><path d="M252.42,115.21s7.13-1,8.34-1.08,2.41,4.17,2.25,5.56-2.06,2-2,3.33c.06,1.13,1.18,2.25,1.65,2.82-.77.6-5.38,1.21-5.38,1.21l-1.58-3S247.67,118.42,252.42,115.21Z" style="fill: rgb(38, 50, 56); transform-origin: 256.971px 120.589px;" id="elzmry47hzalm" class="animable"></path><path d="M258,148.6h0a.24.24,0,0,1-.19-.29,6.38,6.38,0,0,0,0-2.39c-.18-1.39-.35-2.59,2-5.07,3.61-3.9,1.79-9.1,1.77-9.15a.24.24,0,0,1,.14-.32.24.24,0,0,1,.32.14,9.89,9.89,0,0,1-1.87,9.67c-2.14,2.31-2,3.35-1.82,4.66a7.09,7.09,0,0,1,0,2.56A.26.26,0,0,1,258,148.6Z" style="fill: rgb(38, 50, 56); transform-origin: 260.145px 139.989px;" id="elx7iqklba42s" class="animable"></path><path d="M241.63,122.76c.46,7.45.35,11.83,4.11,15.65,5.66,5.75,14.85,2.34,16.63-5.09,1.6-6.7.58-17.75-6.71-20.71A10.18,10.18,0,0,0,241.63,122.76Z" style="fill: rgb(255, 181, 115); transform-origin: 252.313px 126.572px;" id="elrmnbo6h46an" class="animable"></path><path d="M236.64,117.13s7.13-1,8.33-1.09,2.42,4.18,2.25,5.57-2.05,2-2,3.32c.06,1.13,1.17,2.25,1.65,2.82-.77.61-5.38,1.21-5.38,1.21l-1.58-3S231.89,120.33,236.64,117.13Z" style="fill: rgb(38, 50, 56); transform-origin: 241.186px 122.499px;" id="elmk6ypnkh1" class="animable"></path><path d="M238.46,128.38a7.45,7.45,0,0,0,3.35,4.17c2.06,1.16,3.44-.66,3.15-3-.26-2.1-1.64-5.22-3.85-5.42S237.75,126.19,238.46,128.38Z" style="fill: rgb(255, 181, 115); transform-origin: 241.625px 128.514px;" id="elbbv4fey2wh" class="animable"></path><path d="M242.21,128.25a.95.95,0,1,1-1.34-.67A1.07,1.07,0,0,1,242.21,128.25Z" style="fill: rgb(38, 50, 56); transform-origin: 241.279px 128.458px;" id="elibn1i5fx1" class="animable"></path><polygon points="241.59 128.49 240.56 129.04 242.36 131.82 243.09 131.35 241.59 128.49" style="fill: rgb(38, 50, 56); transform-origin: 241.825px 130.155px;" id="el51put78cffh" class="animable"></polygon><path d="M290.6,403.74c-1-3-3.25-13.78-3.25-13.78l8.51-3.93s1.54,9.4,1.38,15.57A65.21,65.21,0,0,0,290.6,403.74Z" style="fill: rgb(64, 123, 255); transform-origin: 292.301px 394.885px;" id="elh2oiv6s5ap9" class="animable"></path><path d="M269.7,217.34s15,59.8,18.07,82.53c3.18,23.65,9.48,91.46,9.48,91.46L286.87,394s-16.9-65.46-21.42-88.45c-4.92-25.06-22.18-88.2-22.18-88.2Z" style="fill: rgb(38, 50, 56); transform-origin: 270.26px 305.67px;" id="elkzbcfejldi" class="animable"></path><g id="elbhxjsy95t8c"><path d="M251.65,221.76l-3.5,13.69c3.25,12.23,7.6,28.81,11.27,43.72A190.79,190.79,0,0,0,251.65,221.76Z" style="opacity: 0.3; transform-origin: 253.8px 250.465px;" class="animable"></path></g><path d="M203.85,407.14c.48-3.1,3.46-13.72,3.46-13.72l9.37.44s-3,9.05-6,14.45A67.58,67.58,0,0,0,203.85,407.14Z" style="fill: rgb(64, 123, 255); transform-origin: 210.265px 400.865px;" id="elrjhlw5tv4am" class="animable"></path><path d="M255.43,217.34s-3.41,61.45-8.09,83c-5.13,23.56-30.66,97.4-30.66,97.4l-11.26-1.56c6.29-27,16.54-70.81,19.36-93.71,3.13-25.33,4.71-85.11,4.71-85.11Z" style="fill: rgb(38, 50, 56); transform-origin: 230.425px 307.54px;" id="el6q7oec5eqlc" class="animable"></path><g id="el5dlyd2h139"><g style="opacity: 0.3; transform-origin: 224.79px 307.02px;" class="animable"><path d="M207.85,397.37l-.72-.21c.17-.6,17.5-60.78,21.24-93.37s3.94-86.58,3.94-87.12h.75c0,.54-.21,54.56-3.95,87.21S208,396.77,207.85,397.37Z" style="fill: rgb(64, 123, 255); transform-origin: 220.095px 307.02px;" id="elczx2u4w9oqo" class="animable"></path><path d="M232.73,225.29l-.09-.75c.09,0,8.43-1,9.06-7l.75.08C241.76,224.18,232.82,225.28,232.73,225.29Z" style="fill: rgb(64, 123, 255); transform-origin: 237.545px 221.415px;" id="elnxdy2s5xxbg" class="animable"></path></g></g><path d="M252.93,124.84c0,.61.32,1.1.72,1.1s.71-.49.71-1.1-.32-1.1-.71-1.1S252.93,124.23,252.93,124.84Z" style="fill: rgb(38, 50, 56); transform-origin: 253.645px 124.84px;" id="el88bchq0zf9b" class="animable"></path><path d="M259.78,124.84c0,.61.32,1.1.72,1.1s.72-.49.72-1.1-.32-1.1-.72-1.1S259.78,124.23,259.78,124.84Z" style="fill: rgb(38, 50, 56); transform-origin: 260.5px 124.84px;" id="el73cj6d7bwii" class="animable"></path><path d="M257.6,125.14a21.72,21.72,0,0,0,2.9,5.19,3.5,3.5,0,0,1-2.9.54Z" style="fill: rgb(237, 137, 62); transform-origin: 259.05px 128.06px;" id="el53zyzpb4vl" class="animable"></path><path d="M255.84,132.55a.18.18,0,1,0,0-.36,4.8,4.8,0,0,1-3.92-1.88.18.18,0,0,0-.24-.05.18.18,0,0,0-.06.25A5.1,5.1,0,0,0,255.84,132.55Z" style="fill: rgb(38, 50, 56); transform-origin: 253.806px 131.393px;" id="elizhnsh4varc" class="animable"></path><path d="M250.86,122.63a.37.37,0,0,0,.29-.14,2.83,2.83,0,0,1,2.28-1.19.36.36,0,0,0,.38-.33.35.35,0,0,0-.33-.38,3.52,3.52,0,0,0-2.9,1.47.35.35,0,0,0,.07.5A.33.33,0,0,0,250.86,122.63Z" style="fill: rgb(38, 50, 56); transform-origin: 252.158px 121.61px;" id="el796mw67i7h6" class="animable"></path><path d="M262.86,122.41a.27.27,0,0,0,.15,0,.34.34,0,0,0,.14-.48,3.56,3.56,0,0,0-2.68-1.84.36.36,0,0,0-.05.71h0a2.84,2.84,0,0,1,2.11,1.48A.36.36,0,0,0,262.86,122.41Z" style="fill: rgb(38, 50, 56); transform-origin: 261.669px 121.255px;" id="elx7p3gc1ige8" class="animable"></path><path d="M213,405.58l-9.81-1.74a.83.83,0,0,0-.84.59l-2.37,8.2a1.39,1.39,0,0,0,1.26,1.75c3.66.35,5.62.33,10.24.66,2.84.2,8.52,1.2,12.46,1.2s4.45-3.89,2.84-4.25c-7.23-1.58-9.95-3.75-12.26-5.83A2.25,2.25,0,0,0,213,405.58Z" style="fill: rgb(38, 50, 56); transform-origin: 213.784px 410.039px;" id="elrdql3rnbkk" class="animable"></path><path d="M298,397.75l-9.75,2.05a.81.81,0,0,0-.56.86l.86,8.49a1.39,1.39,0,0,0,1.82,1.15c3.53-1,5.34-1.79,9.75-3.21,2.71-.87,9.91-2.68,13.56-4.15s2.68-5.27,1.05-5c-7.29,1.23-12.19.83-15.11-.24A2.26,2.26,0,0,0,298,397.75Z" style="fill: rgb(38, 50, 56); transform-origin: 301.935px 403.973px;" id="elrv4ka3sg9ra" class="animable"></path><path d="M239.58,149c-3.92,0-13.37.21-14.29,3.71s.09,9.17,1.34,12.5c-1.84,5.08-1.25,12.58.5,14.92-1.92,5.66-.67,9.83.5,11.83-.92,2.25-1.75,8.67-.34,11.83-1.16,4.5-2.49,12-.41,13.51,2.83,2,10.36,3,15.68,1.74s3.23-12,2.82-14.5c2.33-3.08-.17-12.33-.17-12.33,1.17-2.58-.58-12.25-.58-12.25,1.41-2.33-.42-15-.42-15C245.71,162.42,246.37,149,239.58,149Z" style="fill: rgb(64, 123, 255); transform-origin: 235.653px 184.299px;" id="elksifn0ua9hj" class="animable"></path><path d="M268.35,151.33c-3.08-1.36-13.41-3.83-11.4-1.11,2.9,3.95,1.12,8.11,2.84,13-1.52,4.67-1,12.3.41,15a18,18,0,0,0,.41,11.95c-.76,2-1.44,8.27-.27,11.75-1,4.24-1.76,12.79,0,14.72a8.86,8.86,0,0,0,10.27,2.09c2.45-1,3.54-9.18,2.33-12,2.38-5.19.44-12.88.44-12.88,2.3-4,.52-12.39.52-12.39,2.28-7.44-.52-15.67-.52-15.67C274.57,163.59,273.26,153.5,268.35,151.33Z" style="fill: rgb(64, 123, 255); transform-origin: 265.743px 184.27px;" id="elbpjpe5cde2" class="animable"></path><path d="M261.6,151.4a4.68,4.68,0,0,0,1.33-3.4c0-1.73-1.18-3.64-2.55-3.43A7,7,0,0,0,257,145.9a3.85,3.85,0,0,0-2.22,3.43c-.07,1.51,2.79,6.79,4.36,5.53S260.68,152.69,261.6,151.4Z" style="fill: rgb(64, 123, 255); transform-origin: 258.855px 149.803px;" id="elfsn5xuszvbj" class="animable"></path><path d="M227.14,191s37.55-17.54,37.2-41a4.51,4.51,0,0,1,1.9.4c.41.13,4.87,20.79-39.1,43.22C226.66,191.67,227.14,191,227.14,191Z" style="fill: rgb(38, 50, 56); transform-origin: 246.74px 171.81px;" id="elkq5rmdcfar8" class="animable"></path><g id="elbylbcmzblha"><path d="M231.22,166.55c-.78-3.37-2.76-3.07-4.73-1.69l.14.39c-1.84,5.08-1.25,12.58.5,14.92-.11.32-.21.64-.3,1C229.28,178.77,232.68,172.91,231.22,166.55Z" style="opacity: 0.2; transform-origin: 228.538px 172.527px;" class="animable"></path></g><path d="M236.93,163.3l-1,1-1.09,1.16c-.72.8-1.43,1.61-2.11,2.44A52.63,52.63,0,0,0,229,173a28,28,0,0,0-4.32,10.64,17.5,17.5,0,0,0-.21,2.59,3.66,3.66,0,0,0,.15,1.48,20.54,20.54,0,0,0,2.49,5.1,108.24,108.24,0,0,0,8.51,11.08l-4.7,6.38a50.77,50.77,0,0,1-7-4.18,47.55,47.55,0,0,1-6.42-5.35,29.17,29.17,0,0,1-5.64-7.55,17.39,17.39,0,0,1-1.79-5.78,31.45,31.45,0,0,1-.19-4.94,34.7,34.7,0,0,1,1.73-9.37,44.43,44.43,0,0,1,3.69-8.26,53.57,53.57,0,0,1,4.93-7.18q1.35-1.68,2.83-3.25c.49-.52,1-1,1.53-1.55l.81-.76,1-.86Z" style="fill: rgb(64, 123, 255); transform-origin: 223.392px 180.755px;" id="el4mbrayr83q7" class="animable"></path><g id="elq0h48e4500h"><path d="M230,211.27l-.53-.85c.06,0,5.74-3.67,5.7-9.92h1C236.19,207.31,230.23,211.11,230,211.27Z" style="opacity: 0.2; transform-origin: 232.82px 205.885px;" class="animable"></path></g><path d="M243.37,148.78a.25.25,0,0,1-.25-.24,6.51,6.51,0,0,0-.61-2.31c-.54-1.29-1-2.4.56-5.4,2.48-4.71-.64-9.25-.67-9.3a.25.25,0,0,1,.4-.29,9.92,9.92,0,0,1,.72,9.82c-1.47,2.79-1.06,3.76-.55,5a6.74,6.74,0,0,1,.65,2.47.26.26,0,0,1-.24.27Z" style="fill: rgb(38, 50, 56); transform-origin: 243.246px 139.983px;" id="ela7qlxa8j5l7" class="animable"></path><path d="M236.56,150.26c-1-.19-1.26-3.22-.46-5.23.65-1.63,3-1.41,5.1-.7a14.23,14.23,0,0,1,4.79,2.49c2.12,1.51,1.35,3.35.86,4.79s-1.42,4.75-3.43,3S238,150.53,236.56,150.26Z" style="fill: rgb(64, 123, 255); transform-origin: 241.514px 149.451px;" id="elx1doi7fr9x" class="animable"></path><path d="M236.77,117.75c-.75-.67-1.55-1.83-.67-4,0,.59.75,1.29,1.21,1.54.46-1.79,2.79-4.87,9.33-6.33,8.05-1.79,10.79,1.42,13.14.21s-1.22-2.63-1.22-2.63,4.06-.94,5.37,2.13.18,8.46-7,8.12-8.58,2-12.2,1.42A60.58,60.58,0,0,0,236.77,117.75Z" style="fill: rgb(38, 50, 56); transform-origin: 250.059px 112.354px;" id="el1b5iuxfgzuo" class="animable"></path><path d="M209.52,407c-.42-3.17-2.17-8.08,6.16-6.17,5,1.15-.58,7.5-.58,7.5Z" style="fill: rgb(38, 50, 56); transform-origin: 213.42px 404.366px;" id="elcnay9ykd468" class="animable"></path><path d="M217.17,404.93a13,13,0,0,0-1.5,2.22.21.21,0,0,0,0,.23.2.2,0,0,0,.23,0c.4-.17,4-1.71,4.12-2.82a.57.57,0,0,0-.21-.55,1.16,1.16,0,0,0-1-.29A3.18,3.18,0,0,0,217.17,404.93Zm-.86,1.89c.94-1.56,1.88-2.55,2.58-2.67a.79.79,0,0,1,.68.19.2.2,0,0,1,.08.2C219.56,405.14,217.73,406.16,216.31,406.82Z" style="fill: rgb(38, 50, 56); transform-origin: 217.832px 405.559px;" id="eldhu6dinql9h" class="animable"></path><path d="M215.69,407.12a.22.22,0,0,0-.05.12.21.21,0,0,0,.1.17c.13.08,3.24,1.94,4.36.31.3-.44.2-.72.06-.88-.62-.71-3.37-.28-4.41.23Zm4,.47c-.77.9-2.63.08-3.41-.32,1.19-.42,3.2-.6,3.57-.17,0,0,.11.12-.08.39A.39.39,0,0,1,219.7,407.59Z" style="fill: rgb(38, 50, 56); transform-origin: 217.968px 407.427px;" id="el53463bmh4e" class="animable"></path><path d="M296.77,401.87c-1.93-2.54-5.88-5.95,2.31-8.41,4.88-1.46,3.2,6.81,3.2,6.81Z" style="fill: rgb(38, 50, 56); transform-origin: 298.333px 397.579px;" id="elqjhn80slnwg" class="animable"></path><path d="M305.22,398.35a13.33,13.33,0,0,1-2.67.28.19.19,0,0,1-.18-.13.19.19,0,0,1,.06-.22c.34-.27,3.36-2.68,4.42-2.32a.61.61,0,0,1,.4.46,1.19,1.19,0,0,1-.22,1A3.24,3.24,0,0,1,305.22,398.35Zm-2.07-.13c1.82-.09,3.13-.47,3.57-1a.77.77,0,0,0,.14-.69c0-.12-.08-.16-.13-.17C306.16,396.14,304.39,397.27,303.15,398.22Z" style="fill: rgb(38, 50, 56); transform-origin: 304.819px 397.277px;" id="elk5ekka4nct" class="animable"></path><path d="M302.6,398.63a.19.19,0,0,1-.13,0,.17.17,0,0,1-.11-.16c0-.16-.2-3.77,1.78-4,.52-.06.72.16.8.36.34.88-1.34,3.11-2.27,3.78Zm1.46-3.77c-1.16.27-1.31,2.29-1.32,3.16.93-.84,2-2.54,1.83-3.07,0,0-.06-.15-.39-.11Z" style="fill: rgb(38, 50, 56); transform-origin: 303.67px 396.551px;" id="eltez0b2b6b7" class="animable"></path><path d="M222.72,166.45c-1.28,1.85-3.21,2.71-4.31,1.94s-1-2.88.31-4.72,3.22-2.71,4.32-1.94S224,164.61,222.72,166.45Z" style="fill: rgb(255, 255, 255); transform-origin: 220.718px 165.061px;" id="elifsg95fephk" class="animable"></path></g><defs>     <filter id="active" height="200%">         <feMorphology in="SourceAlpha" result="DILATED" operator="dilate" radius="2"></feMorphology>                <feFlood flood-color="#32DFEC" flood-opacity="1" result="PINK"></feFlood>        <feComposite in="PINK" in2="DILATED" operator="in" result="OUTLINE"></feComposite>        <feMerge>            <feMergeNode in="OUTLINE"></feMergeNode>            <feMergeNode in="SourceGraphic"></feMergeNode>        </feMerge>    </filter>    <filter id="hover" height="200%">        <feMorphology in="SourceAlpha" result="DILATED" operator="dilate" radius="2"></feMorphology>                <feFlood flood-color="#ff0000" flood-opacity="0.5" result="PINK"></feFlood>        <feComposite in="PINK" in2="DILATED" operator="in" result="OUTLINE"></feComposite>        <feMerge>            <feMergeNode in="OUTLINE"></feMergeNode>            <feMergeNode in="SourceGraphic"></feMergeNode>        </feMerge>            <feColorMatrix type="matrix" values="0   0   0   0   0                0   1   0   0   0                0   0   0   0   0                0   0   0   1   0 "></feColorMatrix>    </filter></defs></svg>